<?xml version="1.0" encoding="UTF-8" standalone="no"?>
<!-- Generator: Adobe Illustrator 24.1.2, SVG Export Plug-In . SVG Version: 6.00 Build 0)  -->

<svg
   version="1.1"
   id="Layer_1"
   x="0px"
   y="0px"
   viewBox="0 0 687.06305 435.0062"
   xml:space="preserve"
   sodipodi:docname="PRIDE-BEE-CROSS-01.svg"
   width="687.06305"
   height="435.0062"
   inkscape:version="1.2.1 (9c6d41e410, 2022-07-14)"
   xmlns:inkscape="http://www.inkscape.org/namespaces/inkscape"
   xmlns:sodipodi="http://sodipodi.sourceforge.net/DTD/sodipodi-0.dtd"
   xmlns="http://www.w3.org/2000/svg"
   xmlns:svg="http://www.w3.org/2000/svg"><defs
   id="defs21" /><sodipodi:namedview
   id="namedview19"
   pagecolor="#ffffff"
   bordercolor="#000000"
   borderopacity="0.25"
   inkscape:showpageshadow="2"
   inkscape:pageopacity="0.0"
   inkscape:pagecheckerboard="0"
   inkscape:deskcolor="#d1d1d1"
   showgrid="false"
   inkscape:zoom="1.3444444"
   inkscape:cx="301.61157"
   inkscape:cy="200.08264"
   inkscape:window-width="1920"
   inkscape:window-height="1009"
   inkscape:window-x="-8"
   inkscape:window-y="-8"
   inkscape:window-maximized="1"
   inkscape:current-layer="Layer_1" />
<style
   type="text/css"
   id="style2">
	.st0{fill:#DA2228;}
	.st1{fill:#F15B28;}
	.st2{fill:#EDBD1D;}
	.st3{fill:#099146;}
	.st4{fill:#2E398E;}
	.st5{fill:#67318E;}
</style>
<g
   id="g16"
   transform="translate(-118.38284,-99.455032)">
	<path
   class="st0"
   d="m 324.14,157.97 h -17.56 c -10.03,-6.39 -23.33,-10.7 -31.76,-16.93 -1.78,-1.42 8.55,-1.18 6.51,-8.35 13.37,6.89 30.06,12.96 42.81,25.28 z m 274.76,-5.21 c 6.25,-7.28 19.74,-14.49 30.2,-20.16 12.34,-6.69 9.23,-12.32 2.99,-11.22 -4.75,-7.85 -3.68,-4.87 -11.28,-1.26 -18.27,8.67 -30.97,19.66 -33.78,30.66 -2.78,0.38 -4.71,3.24 -6.11,7.19 h 16.32 c 0.21,-2.14 0.68,-4.07 1.66,-5.21 z M 349.62,114.02 c 1.57,3.16 50.12,31.42 70.94,43.95 h 20.39 C 426.69,156.78 335.08,84.82 349.62,114.02 Z m 212.35,-13.59 c -7.57,-7.57 -49.84,31.3 -55.72,35.36 -9.53,6.58 -29.08,14.21 -32.09,20.92 -10.87,-8.38 -21.46,-11.34 -31.62,0.85 -0.2,0.24 -0.53,0.37 -0.95,0.42 h 51.85 c 17.33,-11.5 71.95,-54.12 68.53,-57.55 z"
   id="path4" />
	<path
   class="st1"
   d="M 320.14,236.39 H 118.52 c 0.49,-4.8 2.21,-9.37 5.43,-13.52 22.71,-29.28 139.9,-2.21 196.19,13.52 z m -5.57,-71.93 c 6.94,7.63 21.34,32.01 18.81,41.02 11.72,15.54 29.79,22.44 46.04,30.91 h 158.19 c 1.98,-2.33 3.71,-5.53 4.21,-10.11 13.45,-2.73 30.94,-15.66 40.42,-34.61 6.57,-4.44 14.83,-16.12 14.8,-26.87 -0.01,-2.04 -0.04,-4.54 0.19,-6.82 h -16.32 c -3.06,8.63 -3.61,22.47 -5.11,27.19 -11.27,-3.51 -27.05,17.64 -40.46,28.16 -7.94,-1.04 -17.47,9.46 -20.78,8.23 -0.45,-1.85 -7.04,-8.28 -4.64,-10.52 13.85,-12.89 12.63,-46.04 -5.61,-39.4 -5.08,-2.28 -14.98,-3.89 -15.59,-10.9 h 0.01 c 0.76,-0.27 2.41,-1.25 4.71,-2.77 h -51.85 c -0.19,0.02 -0.41,0.02 -0.64,0 h -20.39 c 5.29,3.18 8.79,5.35 9.28,5.84 -9.02,0.37 -13.24,5.42 -15.48,12.13 -16.18,-3.93 -19.24,24.07 -7.48,30.45 4,13.97 5.4,28.14 2.86,22.82 -1.28,-2.68 -20.31,-14.12 -23.75,-6.69 -7.36,-12.88 -40.34,-29.98 -43.66,-28.99 -2.79,-16.13 -9.6,-27.26 -18.19,-35.56 h -17.56 c 3.03,1.94 5.78,4.06 7.99,6.49 z m 486.89,33.45 c -58.39,-36.05 -186.74,19.25 -235.13,38.48 h 224.04 c 11.78,-15.89 20.51,-32.66 11.09,-38.48 z"
   id="path6" />
	<path
   class="st2"
   d="m 379.42,236.39 h 158.19 c -3.8,4.49 -8.48,5.76 -6.89,7.5 3.03,3.3 12.14,1.48 28.09,-4.57 2.22,-0.84 4.75,-1.83 7.52,-2.93 h 224.04 c -10.23,13.8 -22.76,26.92 -27.67,31.61 -9.07,8.65 -44.53,18.51 -55.75,14.87 12.79,5.9 1.05,19.46 -17.79,31.94 H 550.69 c -11.63,-5.23 -22.34,-10.29 -30.64,-14.16 -2.09,5.04 -4.99,9.55 -4.11,11.7 2.46,0.52 6.11,1.14 11.02,2.45 h -107.1 c 0.71,-4.13 -1.34,-11.07 -2.28,-12.83 -3.95,0.47 -16.19,5.86 -30.59,12.83 h -168.9 c -2.63,-4.8 -2.68,-9.7 0.91,-14.42 -35,22.73 -104.23,-27.27 -100.47,-64 h 201.62 c 11.66,3.26 20.71,6.03 25.76,7.71 4.07,1.36 51.79,12.1 54.42,6.84 -18.71,-7.08 -17.48,-8.81 -18.85,-13.47 -0.69,-0.36 -1.38,-0.71 -2.06,-1.07 z"
   id="path8" />
	<path
   class="st3"
   d="m 218.09,314.8 h 168.89 c -25.92,12.54 -58.86,30.17 -63.12,33.37 -16.24,11.95 -92.76,-9.61 -105.77,-33.37 z m 404.04,25.41 c 13.75,2.1 45.17,-10.93 67.03,-25.41 H 550.69 c 24.28,10.92 52.58,22.54 71.44,25.41 z M 417.19,317.95 c -11.95,1.07 -25.3,7.98 -24.27,16.98 -34.49,8.24 -60.03,20.21 -54.98,31.03 -8.74,8.74 -17.75,17.11 -19.5,27.26 h 22.33 c 0.83,-4.87 -0.41,-9.57 2.22,-17.17 13.04,-0.24 45.49,-22.9 56.02,-31.33 8.01,4.85 -6.35,24.81 -19.82,48.5 h 184.67 c -3.59,-4.49 -7.53,-8.86 -11.53,-13 -15.75,-16.28 -17.39,-27.98 -18.46,-40.41 12.7,-3.02 30.96,24.34 58.96,25.61 -1.16,8.44 3.13,20.19 9.65,27.8 h 18.67 c 0.68,-15.01 -5.81,-30.2 -18.6,-39.37 4.67,-9.09 -6.59,-11.81 -19.04,-13.91 -51.79,-8.71 -45.46,-20.51 -48.18,-22.57 -3.13,-1.09 -5.89,-1.91 -8.35,-2.57 H 419.86 c -0.3,1.75 -1.09,3 -2.67,3.15 z"
   id="path10" />
	<path
   class="st4"
   d="m 379.17,393.22 h 184.67 c 9.94,12.42 17.24,25.74 16.08,37.62 12.05,5.7 31.25,18.63 24.45,26.45 -1.96,2.25 5.8,8.35 14.91,14.34 h -16.22 c -1.65,-1.57 -3.31,-3.16 -5,-4.75 -7.99,2.5 -23.06,-15.3 -24.1,-30.33 -9.01,3.33 -27.69,-24.99 -30.56,-38.47 2.55,24.38 -4.59,50.65 -15.62,73.55 H 409.83 c -9.2,-21.98 -14.84,-47.06 -13.76,-70.63 -7.11,18.57 -12.78,40.16 -23.9,42.39 -2.27,12.17 -10.14,22.56 -16.53,28.24 H 338.7 c -4.49,-8.17 6.74,-22.39 21.87,-31.89 1.94,-15.09 10.09,-31.55 18.6,-46.52 z m -59.56,11.5 c -3.13,4.7 -35.83,25.87 -52.74,29.28 -5.49,1.11 8.22,0.83 6.81,8.95 -1.4,8.09 44.03,-13.59 50.44,-30 12.56,-9.22 15.75,-14.57 16.63,-19.73 h -22.33 c -0.61,3.58 -0.33,7.38 1.19,11.5 z m 295.76,-3.89 c 8.34,17.91 24.95,24.84 47.5,32.38 1.85,0.62 -0.55,-3.65 1.07,-5.27 9.57,-9.57 9.6,-6.44 3.32,-7.7 -4.17,-0.84 -43.07,-19.07 -46.19,-25.49 0.04,-0.51 0.05,-1.03 0.07,-1.54 h -18.67 c 3.76,4.41 8.26,7.43 12.9,7.62 z"
   id="path12" />
	<path
   class="st5"
   d="m 603.06,471.63 h 16.22 c 10.56,6.95 22.93,13.77 24.08,14.32 4.49,2.15 11.04,-0.21 -1.46,9.16 -3.22,2.41 0.05,6.63 -3.35,5.17 -10.61,-4.57 -22.34,-16.09 -35.49,-28.65 z m -264.26,0.19 c -17.88,22.15 -40,31.8 -34.76,34.41 0.69,0.35 4.06,0.93 5.03,2.42 1.39,2.17 -0.11,3.67 0.75,3.19 22.27,-12.36 26.53,-20.8 37.2,-35.98 0.89,1.19 4.44,-0.5 8.64,-4.23 h -16.94 c 0.02,0.06 0.05,0.13 0.08,0.19 z m 131.47,62.59 c 14.39,-0.29 40.56,-27.56 57.52,-62.77 H 409.83 c 15.2,36.32 40.1,64.18 60.44,62.77 z"
   id="path14" />
</g>
</svg>

